<?xml version="1.0" standalone="no"?>
<!DOCTYPE svg PUBLIC "-//W3C//DTD SVG 20010904//EN"
 "http://www.w3.org/TR/2001/REC-SVG-20010904/DTD/svg10.dtd">
<svg version="1.0" xmlns="http://www.w3.org/2000/svg"
 width="418.000000pt" height="363.000000pt" viewBox="0 0 418.000000 363.000000"
 preserveAspectRatio="xMidYMid meet">

<g transform="translate(0.000000,363.000000) scale(0.100000,-0.100000)"
fill="#000000" stroke="none">
<path stroke="black" stroke-width="40" d="M2458 3560 c-9 -14 -47 -81 -85 -150 -178 -322 -299 -530 -307 -527
-9 3 -67 98 -278 462 -55 94 -103 174 -107 178 -4 4 -145 -227 -314 -515 -168
-288 -374 -640 -458 -783 -84 -143 -234 -399 -334 -570 -100 -170 -235 -400
-300 -510 -182 -307 -235 -399 -235 -407 0 -5 180 -8 400 -8 220 0 400 -3 400
-6 0 -6 -35 -65 -254 -429 l-157 -260 830 -3 c456 -1 1206 -1 1665 0 l836 3
-71 110 c-196 301 -361 559 -366 571 -4 12 62 14 412 14 368 0 416 2 411 15
-3 8 -107 187 -232 398 -224 378 -307 518 -664 1122 -100 171 -220 373 -265
450 -46 77 -176 298 -289 490 -113 193 -209 357 -214 365 -7 12 -12 10 -24
-10z m102 -150 c34 -58 120 -202 190 -320 70 -118 164 -278 210 -355 181 -306
619 -1049 953 -1615 l215 -365 -182 -5 c-99 -3 -655 -4 -1235 -2 -886 2 -1052
4 -1048 16 3 7 96 163 207 345 l202 331 414 2 413 3 -91 155 c-153 262 -187
322 -440 755 -134 231 -255 439 -267 462 l-24 41 146 259 c240 426 247 438
262 416 7 -10 41 -65 75 -123z m-545 -480 c722 -1238 846 -1450 851 -1465 5
-13 -39 -15 -393 -15 l-400 0 -188 335 c-164 293 -189 334 -200 318 -7 -10
-81 -130 -165 -268 -453 -738 -653 -1061 -664 -1073 -9 -9 -99 -12 -403 -10
l-392 3 181 310 c99 171 257 441 350 600 94 160 230 391 303 515 399 680 684
1165 728 1239 41 69 51 81 62 70 7 -8 156 -259 330 -559z m-270 -920 c13 -25
87 -157 164 -295 78 -137 141 -257 141 -265 0 -9 -22 -52 -49 -95 -165 -271
-371 -615 -371 -620 0 -3 375 -5 833 -5 l832 0 46 -73 c26 -39 124 -191 218
-336 94 -145 171 -267 171 -272 0 -5 -688 -9 -1635 -9 -1104 0 -1635 3 -1635
10 0 14 654 1102 1028 1709 228 371 206 349 257 251z"/>
</g>
</svg>
